<svg width="354" height="48" viewBox="0 0 354 48" fill="none" xmlns="http://www.w3.org/2000/svg">
<path d="M13.632 3.01603C16.032 3.01603 18.112 3.36803 19.872 4.07203C21.664 4.74403 23.312 5.78403 24.816 7.19203L21.456 11.08C20.272 10.12 19.088 9.41603 17.904 8.96803C16.72 8.52003 15.456 8.29603 14.112 8.29603C12.64 8.29603 11.456 8.61603 10.56 9.25603C9.69602 9.86403 9.26402 10.744 9.26402 11.896C9.26402 12.696 9.44002 13.352 9.79202 13.864C10.176 14.376 10.832 14.856 11.76 15.304C12.688 15.752 14.08 16.264 15.936 16.84C19.232 17.896 21.696 19.208 23.328 20.776C24.96 22.312 25.776 24.52 25.776 27.4C25.776 29.448 25.264 31.256 24.24 32.824C23.216 34.36 21.728 35.576 19.776 36.472C17.824 37.336 15.536 37.768 12.912 37.768C10.288 37.768 7.95202 37.352 5.90402 36.52C3.85602 35.688 2.09602 34.552 0.624023 33.112L4.22402 29.128C5.50402 30.216 6.83202 31.048 8.20802 31.624C9.58402 32.168 11.088 32.44 12.72 32.44C14.448 32.44 15.824 32.04 16.848 31.24C17.904 30.44 18.432 29.32 18.432 27.88C18.432 26.984 18.24 26.248 17.856 25.672C17.504 25.064 16.88 24.52 15.984 24.04C15.088 23.56 13.792 23.064 12.096 22.552C8.48002 21.432 5.88802 20.088 4.32002 18.52C2.78402 16.952 2.01602 14.904 2.01602 12.376C2.01602 10.52 2.51202 8.88803 3.50402 7.48003C4.49602 6.04003 5.87202 4.93603 7.63202 4.16803C9.39202 3.40003 11.392 3.01603 13.632 3.01603Z" fill="#141414"/>
<path d="M49.9407 29.944C49.9407 30.936 50.0847 31.672 50.3727 32.152C50.6607 32.6 51.1406 32.936 51.8126 33.16L50.3727 37.672C48.8686 37.544 47.6366 37.192 46.6766 36.616C45.7486 36.04 45.0287 35.144 44.5167 33.928C42.8527 36.488 40.3086 37.768 36.8846 37.768C34.3566 37.768 32.3406 37.048 30.8366 35.608C29.3646 34.136 28.6286 32.232 28.6286 29.896C28.6286 27.112 29.6366 24.984 31.6526 23.512C33.6686 22.04 36.5646 21.304 40.3406 21.304H43.2687V20.056C43.2687 18.488 42.9167 17.4 42.2127 16.792C41.5087 16.184 40.3406 15.88 38.7086 15.88C36.9166 15.88 34.6766 16.328 31.9886 17.224L30.4526 12.664C33.6206 11.416 36.7566 10.792 39.8606 10.792C43.3166 10.792 45.8606 11.544 47.4926 13.048C49.1246 14.52 49.9407 16.728 49.9407 19.672V29.944ZM38.7566 32.872C40.6766 32.872 42.1806 31.928 43.2687 30.04V25.192H41.0126C37.3326 25.192 35.4926 26.568 35.4926 29.32C35.4926 30.44 35.7647 31.32 36.3087 31.96C36.8847 32.568 37.7006 32.872 38.7566 32.872Z" fill="#141414"/>
<path d="M84.2546 10.792C86.2706 10.792 87.8866 11.48 89.1026 12.856C90.3506 14.232 90.9746 16.104 90.9746 18.472V37H84.1587V19.624C84.1587 17.128 83.3267 15.88 81.6627 15.88C80.7667 15.88 79.9826 16.168 79.3106 16.744C78.6386 17.32 77.9507 18.216 77.2467 19.432V37H70.4306V19.624C70.4306 17.128 69.5986 15.88 67.9346 15.88C67.0386 15.88 66.2546 16.184 65.5826 16.792C64.9106 17.368 64.2387 18.248 63.5667 19.432V37H56.7506V11.56H62.6546L63.1826 14.728C64.1426 13.448 65.2147 12.472 66.3987 11.8C67.6147 11.128 69.0066 10.792 70.5746 10.792C72.0146 10.792 73.2626 11.16 74.3186 11.896C75.3746 12.6 76.1426 13.608 76.6227 14.92C77.6786 13.544 78.8146 12.52 80.0306 11.848C81.2786 11.144 82.6866 10.792 84.2546 10.792Z" fill="#141414"/>
<path d="M118.27 37H112.366L112.03 33.592C111.134 35 110.046 36.056 108.766 36.76C107.486 37.432 105.998 37.768 104.302 37.768C101.998 37.768 100.238 37.08 99.0221 35.704C97.8061 34.296 97.1982 32.344 97.1982 29.848V11.56H104.014V28.984C104.014 30.328 104.238 31.288 104.686 31.864C105.134 32.408 105.838 32.68 106.798 32.68C108.622 32.68 110.174 31.576 111.454 29.368V11.56H118.27V37Z" fill="#141414"/>
<path d="M146.505 23.704C146.505 24.024 146.457 24.904 146.361 26.344H130.473C130.697 28.648 131.321 30.28 132.345 31.24C133.369 32.2 134.761 32.68 136.521 32.68C137.609 32.68 138.633 32.504 139.593 32.152C140.553 31.8 141.593 31.24 142.713 30.472L145.545 34.312C142.697 36.616 139.481 37.768 135.897 37.768C131.897 37.768 128.825 36.568 126.681 34.168C124.537 31.768 123.465 28.52 123.465 24.424C123.465 21.832 123.913 19.512 124.809 17.464C125.737 15.384 127.065 13.752 128.793 12.568C130.553 11.384 132.633 10.792 135.033 10.792C138.649 10.792 141.465 11.928 143.481 14.2C145.497 16.472 146.505 19.64 146.505 23.704ZM139.737 21.784C139.737 17.56 138.217 15.448 135.177 15.448C133.769 15.448 132.665 15.976 131.865 17.032C131.097 18.056 130.633 19.736 130.473 22.072H139.737V21.784Z" fill="#141414"/>
<path d="M157.774 37.768C155.694 37.768 154.078 37.176 152.926 35.992C151.774 34.776 151.198 33.064 151.198 30.856V1.43203L158.014 0.664032V30.664C158.014 31.784 158.478 32.344 159.406 32.344C159.918 32.344 160.366 32.248 160.75 32.056L162.142 36.904C160.83 37.48 159.374 37.768 157.774 37.768Z" fill="#141414"/>
<path d="M194.496 19.432C196.736 19.848 198.544 20.664 199.92 21.88C201.328 23.064 202.032 24.888 202.032 27.352C202.032 30.84 200.784 33.32 198.288 34.792C195.792 36.264 192.32 37 187.872 37H177.504V3.78403H186.576C191.12 3.78403 194.592 4.45603 196.992 5.80003C199.392 7.14403 200.592 9.30403 200.592 12.28C200.592 14.232 200 15.816 198.816 17.032C197.664 18.216 196.224 19.016 194.496 19.432ZM184.56 8.87203V17.272H188.016C189.744 17.272 191.072 16.92 192 16.216C192.928 15.48 193.392 14.376 193.392 12.904C193.392 11.432 192.896 10.392 191.904 9.78403C190.912 9.17603 189.36 8.87203 187.248 8.87203H184.56ZM187.92 31.768C190.128 31.768 191.808 31.448 192.96 30.808C194.112 30.136 194.688 28.888 194.688 27.064C194.688 23.736 192.64 22.072 188.544 22.072H184.56V31.768H187.92Z" fill="#141414"/>
<path d="M226.331 29.944C226.331 30.936 226.475 31.672 226.763 32.152C227.051 32.6 227.531 32.936 228.203 33.16L226.763 37.672C225.259 37.544 224.027 37.192 223.067 36.616C222.139 36.04 221.419 35.144 220.907 33.928C219.243 36.488 216.699 37.768 213.275 37.768C210.747 37.768 208.731 37.048 207.227 35.608C205.755 34.136 205.019 32.232 205.019 29.896C205.019 27.112 206.027 24.984 208.043 23.512C210.059 22.04 212.955 21.304 216.731 21.304H219.659V20.056C219.659 18.488 219.307 17.4 218.603 16.792C217.899 16.184 216.731 15.88 215.099 15.88C213.307 15.88 211.067 16.328 208.379 17.224L206.843 12.664C210.011 11.416 213.147 10.792 216.251 10.792C219.707 10.792 222.251 11.544 223.883 13.048C225.515 14.52 226.331 16.728 226.331 19.672V29.944ZM215.147 32.872C217.067 32.872 218.571 31.928 219.659 30.04V25.192H217.403C213.723 25.192 211.883 26.568 211.883 29.32C211.883 30.44 212.155 31.32 212.699 31.96C213.275 32.568 214.091 32.872 215.147 32.872Z" fill="#141414"/>
<path d="M246.293 10.84C247.061 10.84 247.909 10.968 248.837 11.224L247.685 17.8C246.789 17.576 246.037 17.464 245.429 17.464C243.925 17.464 242.757 17.992 241.925 19.048C241.093 20.104 240.437 21.704 239.957 23.848V37H233.141V11.56H239.045L239.669 16.504C240.277 14.712 241.157 13.32 242.309 12.328C243.493 11.336 244.821 10.84 246.293 10.84Z" fill="#141414"/>
<path d="M272.27 23.704C272.27 24.024 272.222 24.904 272.126 26.344H256.238C256.462 28.648 257.086 30.28 258.11 31.24C259.134 32.2 260.526 32.68 262.286 32.68C263.374 32.68 264.398 32.504 265.358 32.152C266.318 31.8 267.358 31.24 268.478 30.472L271.31 34.312C268.462 36.616 265.246 37.768 261.662 37.768C257.662 37.768 254.59 36.568 252.446 34.168C250.302 31.768 249.23 28.52 249.23 24.424C249.23 21.832 249.678 19.512 250.574 17.464C251.502 15.384 252.83 13.752 254.558 12.568C256.318 11.384 258.398 10.792 260.798 10.792C264.414 10.792 267.23 11.928 269.246 14.2C271.262 16.472 272.27 19.64 272.27 23.704ZM265.502 21.784C265.502 17.56 263.982 15.448 260.942 15.448C259.534 15.448 258.43 15.976 257.63 17.032C256.862 18.056 256.398 19.736 256.238 22.072H265.502V21.784Z" fill="#141414"/>
<path d="M291.412 10.792C293.652 10.792 295.396 11.48 296.644 12.856C297.892 14.2 298.516 16.072 298.516 18.472V37H291.7V19.624C291.7 18.248 291.46 17.288 290.98 16.744C290.532 16.168 289.844 15.88 288.916 15.88C287.956 15.88 287.076 16.184 286.276 16.792C285.508 17.368 284.756 18.248 284.02 19.432V37H277.204V11.56H283.108L283.636 14.776C284.692 13.464 285.844 12.472 287.092 11.8C288.372 11.128 289.812 10.792 291.412 10.792Z" fill="#141414"/>
<path d="M327.753 12.952C326.089 13.592 323.641 13.912 320.409 13.912C322.009 14.616 323.193 15.496 323.961 16.552C324.729 17.576 325.113 18.872 325.113 20.44C325.113 22.072 324.681 23.544 323.817 24.856C322.985 26.136 321.769 27.144 320.169 27.88C318.601 28.616 316.761 28.984 314.649 28.984C313.529 28.984 312.537 28.872 311.673 28.648C311.033 29.064 310.713 29.624 310.713 30.328C310.713 30.84 310.905 31.256 311.289 31.576C311.705 31.864 312.489 32.008 313.641 32.008H317.529C319.417 32.008 321.065 32.328 322.473 32.968C323.913 33.576 325.017 34.44 325.785 35.56C326.585 36.648 326.985 37.896 326.985 39.304C326.985 41.896 325.865 43.912 323.625 45.352C321.417 46.824 318.217 47.56 314.025 47.56C311.017 47.56 308.633 47.24 306.873 46.6C305.145 45.992 303.929 45.096 303.225 43.912C302.521 42.728 302.169 41.24 302.169 39.448H308.265C308.265 40.28 308.425 40.936 308.745 41.416C309.065 41.928 309.641 42.296 310.473 42.52C311.337 42.776 312.569 42.904 314.169 42.904C316.377 42.904 317.913 42.632 318.777 42.088C319.673 41.544 320.121 40.776 320.121 39.784C320.121 38.888 319.785 38.2 319.113 37.72C318.441 37.24 317.449 37 316.137 37H312.393C309.865 37 307.977 36.536 306.729 35.608C305.481 34.648 304.857 33.448 304.857 32.008C304.857 31.112 305.113 30.248 305.625 29.416C306.169 28.552 306.905 27.832 307.833 27.256C306.265 26.392 305.113 25.384 304.377 24.232C303.673 23.048 303.321 21.64 303.321 20.008C303.321 18.152 303.769 16.536 304.665 15.16C305.593 13.752 306.873 12.68 308.505 11.944C310.169 11.176 312.057 10.792 314.169 10.792C316.793 10.856 318.953 10.632 320.649 10.12C322.345 9.60803 324.153 8.80803 326.073 7.72003L327.753 12.952ZM314.313 15.352C313.033 15.352 312.009 15.768 311.241 16.6C310.505 17.4 310.137 18.504 310.137 19.912C310.137 21.352 310.505 22.488 311.241 23.32C312.009 24.152 313.049 24.568 314.361 24.568C315.737 24.568 316.777 24.168 317.481 23.368C318.185 22.568 318.537 21.384 318.537 19.816C318.537 16.84 317.129 15.352 314.313 15.352Z" fill="#141414"/>
<path d="M340.877 10.792C344.685 10.792 347.661 11.992 349.805 14.392C351.949 16.76 353.021 20.056 353.021 24.28C353.021 26.968 352.525 29.336 351.533 31.384C350.573 33.4 349.165 34.968 347.309 36.088C345.485 37.208 343.325 37.768 340.829 37.768C337.021 37.768 334.029 36.584 331.853 34.216C329.709 31.816 328.637 28.504 328.637 24.28C328.637 21.592 329.117 19.24 330.077 17.224C331.069 15.176 332.477 13.592 334.301 12.472C336.157 11.352 338.349 10.792 340.877 10.792ZM340.877 15.88C339.149 15.88 337.853 16.568 336.989 17.944C336.157 19.288 335.741 21.4 335.741 24.28C335.741 27.16 336.157 29.288 336.989 30.664C337.853 32.008 339.133 32.68 340.829 32.68C342.525 32.68 343.789 32.008 344.621 30.664C345.485 29.288 345.917 27.16 345.917 24.28C345.917 21.4 345.501 19.288 344.669 17.944C343.837 16.568 342.573 15.88 340.877 15.88Z" fill="#141414"/>
</svg>
