<svg width="35" height="35" viewBox="0 0 35 35" fill="none" xmlns="http://www.w3.org/2000/svg">
<path d="M32.9583 35C28.9074 35 24.9051 34.1169 20.9514 32.3507C16.9977 30.5845 13.4005 28.081 10.1597 24.8403C6.91898 21.5995 4.41551 18.0023 2.64931 14.0486C0.883102 10.0949 0 6.09259 0 2.04167C0 1.45833 0.194444 0.972222 0.583333 0.583333C0.972222 0.194444 1.45833 0 2.04167 0H9.91667C10.3704 0 10.7755 0.153935 11.1319 0.461806C11.4884 0.769676 11.6991 1.13426 11.7639 1.55556L13.0278 8.36111C13.0926 8.87963 13.0764 9.31713 12.9792 9.67361C12.8819 10.0301 12.7037 10.338 12.4444 10.5972L7.72917 15.3611C8.37731 16.5602 9.14699 17.7188 10.0382 18.8368C10.9294 19.9549 11.9097 21.0324 12.9792 22.0694C13.9838 23.0741 15.037 24.0058 16.1389 24.8646C17.2407 25.7234 18.4074 26.5093 19.6389 27.2222L24.2083 22.6528C24.5 22.3611 24.8808 22.1424 25.3507 21.9965C25.8206 21.8507 26.2824 21.8102 26.7361 21.875L33.4444 23.2361C33.8981 23.3657 34.2708 23.6007 34.5625 23.941C34.8542 24.2813 35 24.662 35 25.0833V32.9583C35 33.5417 34.8056 34.0278 34.4167 34.4167C34.0278 34.8056 33.5417 35 32.9583 35ZM5.88194 11.6667L9.09028 8.45833L8.26389 3.88889H3.9375C4.09954 5.21759 4.32639 6.53009 4.61806 7.82639C4.90972 9.12269 5.33102 10.4028 5.88194 11.6667ZM23.2847 29.0694C24.5486 29.6204 25.8368 30.0579 27.1493 30.3819C28.4618 30.706 29.7824 30.9167 31.1111 31.0139V26.7361L26.5417 25.8125L23.2847 29.0694Z" fill="url(#paint0_linear_320_128)"/>
<defs>
<linearGradient id="paint0_linear_320_128" x1="17.5" y1="0" x2="17.5" y2="35" gradientUnits="userSpaceOnUse">
<stop stop-color="#B6F829"/>
<stop offset="1" stop-color="#67DD0A"/>
</linearGradient>
</defs>
</svg>
